<?xml version="1.0" encoding="UTF-8"?>
<svg id="Layer_1" data-name="Layer 1" xmlns="http://www.w3.org/2000/svg" viewBox="0 0 250 250">
  <defs>
    <style>
      .cls-1 {
        fill: #00e6ff;
      }

      .cls-2 {
        fill: #19b9ff;
      }

      .cls-3 {
        fill: #378cff;
      }

      .cls-4 {
        fill: #5064ff;
      }
    </style>
  </defs>
  <path class="cls-1" d="m168.79,80.09l-31.44,26.38c-2.13,1.79-5.38.27-5.38-2.51v-41.05c0-1.99,1.76-3.55,3.73-3.24,12.56,1.94,23.95,7.43,33.1,15.42,1.53,1.33,1.53,3.7-.02,5Z"/>
  <path class="cls-4" d="m119.14,62.92v123.64c0,2.02-1.81,3.54-3.81,3.23-31.51-4.91-55.62-32.17-55.62-65.05s24.11-60.15,55.62-65.05c2-.31,3.81,1.21,3.81,3.23Z"/>
  <path class="cls-3" d="m168.81,174.39c-9.16,7.99-20.54,13.48-33.1,15.42-1.97.3-3.73-1.25-3.73-3.24v-41.05c0-2.78,3.25-4.3,5.38-2.51l31.44,26.38c1.55,1.3,1.55,3.67.02,5Z"/>
  <path class="cls-2" d="m191.4,124.74c0,12.46-3.46,24.12-9.48,34.05-1.03,1.7-3.36,2.05-4.88.77l-38.51-32.32c-1.56-1.31-1.56-3.71,0-5.02l38.51-32.32c1.52-1.28,3.85-.93,4.88.77,6.01,9.94,9.48,21.59,9.48,34.05Z"/>
</svg>